<svg width="22" height="32" fill="none" xmlns="http://www.w3.org/2000/svg"><path fill-rule="evenodd" clip-rule="evenodd" d="M2.528 1.126c-.781 0-1.417.657-1.417 1.465s.636 1.466 1.417 1.466 1.417-.658 1.417-1.466c0-.808-.636-1.465-1.417-1.465Zm.001 4.056C1.148 5.182.024 4.02.024 2.592.024 1.161 1.148 0 2.529 0c1.382 0 2.506 1.163 2.506 2.591 0 1.429-1.124 2.591-2.506 2.591Zm15.526 16.642v5.533c0 1.748 1.239 3.202 2.857 3.472v-5.445c0-1.76-1.262-3.274-2.857-3.56ZM22 32h-.544c-2.476 0-4.49-2.083-4.49-4.643v-5.58h-2.508c-4.152 0-7.529-3.494-7.529-7.787 0-4.293 3.377-7.786 7.529-7.786 4.15 0 7.528 3.493 7.528 7.786v3.182h-1.088V13.99c0-3.673-2.89-6.66-6.44-6.66-3.551 0-6.44 2.987-6.44 6.66s2.889 6.66 6.44 6.66h2.51l.023-6.662c0-1.443-1.137-2.618-2.534-2.618-1.396 0-2.532 1.175-2.532 2.62 0 1.444 1.136 2.62 2.532 2.62v1.125c-1.996 0-3.62-1.68-3.62-3.745 0-2.065 1.624-3.745 3.62-3.745 1.997 0 3.622 1.68 3.622 3.745l-.023 6.695c2.22.285 3.944 2.284 3.944 4.7V32ZM0 17.042c0 2.56 2.014 4.643 4.49 4.643V20.56c-1.876 0-3.402-1.577-3.402-3.517v-9.69h2.857v9.828h1.088V6.226H0v10.816Z" fill="#444"/></svg>
